<?xml version="1.0" encoding="UTF-8"?>
<svg version="1.1" xmlns="http://www.w3.org/2000/svg" width="90" height="80">
<path d="M0 0 C1.65 0 3.3 0 5 0 C4.34 1.98 3.68 3.96 3 6 C2.34 6 1.68 6 1 6 C0.81824219 6.65226562 0.63648437 7.30453125 0.44921875 7.9765625 C-0.9764828 12.93361712 -2.51067507 17.45427622 -5 22 C-5.391875 22.78375 -5.78375 23.5675 -6.1875 24.375 C-6.455625 24.91125 -6.72375 25.4475 -7 26 C-6.34 26.33 -5.68 26.66 -5 27 C-5 27.66 -5 28.32 -5 29 C-4.01 29 -3.02 29 -2 29 C-2 29.66 -2 30.32 -2 31 C-0.35 31 1.3 31 3 31 C3 30.34 3 29.68 3 29 C7.62 29.66 12.24 30.32 17 31 C17 32.32 17 33.64 17 35 C12.71 34.34 8.42 33.68 4 33 C4 33.99 4 34.98 4 36 C2.02 35.505 2.02 35.505 0 35 C0.34786708 36.97536745 0.34786708 36.97536745 1 39 C1.66 39.33 2.32 39.66 3 40 C3 40.66 3 41.32 3 42 C0.35541621 43.32229189 -1.67761301 43.09677194 -4.625 43.0625 C-5.62789062 43.05347656 -6.63078125 43.04445312 -7.6640625 43.03515625 C-8.43492188 43.02355469 -9.20578125 43.01195312 -10 43 C-10 40.33333333 -10 37.66666667 -10 35 C-13.89359206 39.89839001 -14.7242265 43.7950962 -15 50 C-16.32 49.67 -17.64 49.34 -19 49 C-18.6083965 43.04492601 -17.62875405 38.37180176 -15 33 C-15.66 33 -16.32 33 -17 33 C-17.33 33.99 -17.66 34.98 -18 36 C-19.62102968 37.71108689 -21.29503463 39.37253306 -23 41 C-23.7425 41.78375 -24.485 42.5675 -25.25 43.375 C-33.16367869 50.92896602 -38.93815307 55.35667408 -49.9375 55.3125 C-50.73607422 55.32861328 -51.53464844 55.34472656 -52.35742188 55.36132812 C-57.05685887 55.36522161 -60.20674632 55.0734712 -64 52 C-66.46396049 48.30405926 -66.66716594 45.28892393 -66 41 C-64.28281144 38.16290586 -62.88727059 37.26572304 -59.73046875 36.3203125 C-57.49333282 35.80594739 -55.26540194 35.36788579 -53 35 C-53 34.34 -53 33.68 -53 33 C-48.05 32.34 -43.1 31.68 -38 31 C-38 30.01 -38 29.02 -38 28 C-38.99 28 -39.98 28 -41 28 C-41 26.68 -41 25.36 -41 24 C-38.58265458 23.91882049 -36.16805051 23.85943074 -33.75 23.8125 C-33.06808594 23.78736328 -32.38617188 23.76222656 -31.68359375 23.73632812 C-28.56509702 23.69091312 -26.38772657 23.78238525 -23.640625 25.32421875 C-22 27 -22 27 -20 30 C-15.40621681 25.13439532 -11.74274092 20.19356171 -8.4140625 14.390625 C-7.12849105 12.21722797 -5.75521497 10.21205815 -4.25 8.1875 C-2.31788889 5.45034259 -1.05166532 3.15499595 0 0 Z M-13 27 C-13.33 27.66 -13.66 28.32 -14 29 C-13.34 29 -12.68 29 -12 29 C-12.33 28.34 -12.66 27.68 -13 27 Z M-33 28 C-33 28.99 -33 29.98 -33 31 C-31.02 31 -29.04 31 -27 31 C-27.33 30.01 -27.66 29.02 -28 28 C-29.65 28 -31.3 28 -33 28 Z M-6 33 C-6 34.98 -6 36.96 -6 39 C-5.01 39 -4.02 39 -3 39 C-3.33 37.02 -3.66 35.04 -4 33 C-4.66 33 -5.32 33 -6 33 Z M-47.1875 36 C-48.27417969 36.185625 -49.36085938 36.37125 -50.48046875 36.5625 C-51.72763672 36.7790625 -51.72763672 36.7790625 -53 37 C-53 37.66 -53 38.32 -53 39 C-53.9075 39.0825 -54.815 39.165 -55.75 39.25 C-59.46100241 40.10638517 -60.83642572 40.88445304 -63 44 C-62.85974801 46.70705512 -62.85974801 46.70705512 -62 49 C-60.02 49.495 -60.02 49.495 -58 50 C-58 50.66 -58 51.32 -58 52 C-52.71694183 53.69057861 -47.32900731 53.29188056 -42 52 C-42 51.34 -42 50.68 -42 50 C-40.88625 49.87625 -40.88625 49.87625 -39.75 49.75 C-36.48778646 48.8603054 -35.19045122 47.51496251 -33 45 C-35.64 45 -38.28 45 -41 45 C-40.67 43.68 -40.34 42.36 -40 41 C-39.34 41 -38.68 41 -38 41 C-38 39.02 -38 37.04 -38 35 C-41.18470342 35 -44.05023907 35.46025618 -47.1875 36 Z M-32 37 C-32 38.32 -32 39.64 -32 41 C-31.34 41 -30.68 41 -30 41 C-29.67 41.66 -29.34 42.32 -29 43 C-29 42.34 -29 41.68 -29 41 C-27.68 40.34 -26.36 39.68 -25 39 C-25 38.34 -25 37.68 -25 37 C-27.31 37 -29.62 37 -32 37 Z " fill="#BA2424" transform="translate(74,14)"/>
<path d="M0 0 C1.65 0 3.3 0 5 0 C4.34 1.98 3.68 3.96 3 6 C2.34 6 1.68 6 1 6 C0.81824219 6.65226562 0.63648437 7.30453125 0.44921875 7.9765625 C-0.9764828 12.93361712 -2.51067507 17.45427622 -5 22 C-5.391875 22.78375 -5.78375 23.5675 -6.1875 24.375 C-6.455625 24.91125 -6.72375 25.4475 -7 26 C-6.34 26.33 -5.68 26.66 -5 27 C-5 27.66 -5 28.32 -5 29 C-4.01 29 -3.02 29 -2 29 C-2 29.66 -2 30.32 -2 31 C-0.35 31 1.3 31 3 31 C3 30.34 3 29.68 3 29 C7.62 29.66 12.24 30.32 17 31 C17 32.32 17 33.64 17 35 C12.71 34.34 8.42 33.68 4 33 C4 33.99 4 34.98 4 36 C2.68 35.67 1.36 35.34 0 35 C0.34786708 36.97536745 0.34786708 36.97536745 1 39 C1.66 39.33 2.32 39.66 3 40 C3 40.66 3 41.32 3 42 C0.35541621 43.32229189 -1.67761301 43.09677194 -4.625 43.0625 C-5.62789062 43.05347656 -6.63078125 43.04445312 -7.6640625 43.03515625 C-8.43492188 43.02355469 -9.20578125 43.01195312 -10 43 C-10 40.33333333 -10 37.66666667 -10 35 C-13.89359206 39.89839001 -14.7242265 43.7950962 -15 50 C-16.32 49.67 -17.64 49.34 -19 49 C-18.6083965 43.04492601 -17.62875405 38.37180176 -15 33 C-15.66 32.67 -16.32 32.34 -17 32 C-16.67 31.34 -16.34 30.68 -16 30 C-16.99 30.33 -17.98 30.66 -19 31 C-17.65118169 28.1032521 -16.09755139 25.69662625 -14.125 23.1875 C-12.20472543 20.67672938 -10.46457664 18.20493685 -8.9375 15.4375 C-7.50458551 12.89523235 -6.09708781 10.69956751 -4.375 8.375 C-2.41535512 5.70385328 -1.05558509 3.16675526 0 0 Z M-13 27 C-13.33 27.66 -13.66 28.32 -14 29 C-13.34 29 -12.68 29 -12 29 C-12.33 28.34 -12.66 27.68 -13 27 Z M-6 33 C-6 34.98 -6 36.96 -6 39 C-5.01 39 -4.02 39 -3 39 C-3.33 37.02 -3.66 35.04 -4 33 C-4.66 33 -5.32 33 -6 33 Z " fill="#981D1D" transform="translate(74,14)"/>
<path d="M0 0 C2.41734542 -0.08117951 4.83194949 -0.14056926 7.25 -0.1875 C7.93191406 -0.21263672 8.61382812 -0.23777344 9.31640625 -0.26367188 C12.44718207 -0.3092657 14.66341215 -0.17712334 17.45703125 1.29296875 C19 3 19 3 19.4375 6.5 C19 10 19 10 17.9375 11.9375 C14.98831309 13.55479605 12.29132441 13.18630138 9 13 C9 14.32 9 15.64 9 17 C9.66 17 10.32 17 11 17 C11 18.32 11 19.64 11 21 C7.37 21 3.74 21 0 21 C0.33 19.68 0.66 18.36 1 17 C1.66 17 2.32 17 3 17 C3 12.71 3 8.42 3 4 C2.01 4 1.02 4 0 4 C0 2.68 0 1.36 0 0 Z M8 4 C8 4.99 8 5.98 8 7 C9.98 7 11.96 7 14 7 C13.67 6.01 13.34 5.02 13 4 C11.35 4 9.7 4 8 4 Z " fill="#E2E3E3" transform="translate(33,38)"/>
<path d="M0 0 C1.32 0 2.64 0 4 0 C4 0.66 4 1.32 4 2 C4.99 2 5.98 2 7 2 C7 2.66 7 3.32 7 4 C8.65 4 10.3 4 12 4 C12 3.34 12 2.68 12 2 C16.62 2.66 21.24 3.32 26 4 C26 5.32 26 6.64 26 8 C21.71 7.34 17.42 6.68 13 6 C13 6.99 13 7.98 13 9 C11.68 8.67 10.36 8.34 9 8 C9.34786708 9.97536745 9.34786708 9.97536745 10 12 C10.66 12.33 11.32 12.66 12 13 C12 13.66 12 14.32 12 15 C9.35541621 16.32229189 7.32238699 16.09677194 4.375 16.0625 C3.37210937 16.05347656 2.36921875 16.04445313 1.3359375 16.03515625 C0.56507812 16.02355469 -0.20578125 16.01195313 -1 16 C-1 14.68 -1 13.36 -1 12 C-1.19304072 10.66436688 -1.40145583 9.3308676 -1.625 8 C-2.07136007 4.72261648 -1.98052446 2.79603453 0 0 Z M3 6 C3 7.98 3 9.96 3 12 C3.99 12 4.98 12 6 12 C5.67 10.02 5.34 8.04 5 6 C4.34 6 3.68 6 3 6 Z " fill="#E2DBDB" transform="translate(65,41)"/>
<path d="M0 0 C3.63 0 7.26 0 11 0 C11 1.32 11 2.64 11 4 C9.68 3.67 8.36 3.34 7 3 C7 8.28 7 13.56 7 19 C7.99 19.33 8.98 19.66 10 20 C6.52674819 21.1577506 3.63932552 21.06866652 0 21 C0.33 19.68 0.66 18.36 1 17 C1.66 17 2.32 17 3 17 C3 12.71 3 8.42 3 4 C2.01 4 1.02 4 0 4 C0 2.68 0 1.36 0 0 Z " fill="#EDEEEE" transform="translate(33,38)"/>
<path d="M0 0 C0 1.65 0 3.3 0 5 C-1.72807318 5.33895656 -3.45751974 5.67091525 -5.1875 6 C-6.63189453 6.2784375 -6.63189453 6.2784375 -8.10546875 6.5625 C-10.7934206 6.96877612 -13.28771019 7.07933572 -16 7 C-16 7.66 -16 8.32 -16 9 C-20.75 10.125 -20.75 10.125 -23 9 C-22.67 8.01 -22.34 7.02 -22 6 C-20.02 5.67 -18.04 5.34 -16 5 C-16 4.34 -16 3.68 -16 3 C-15.08476562 2.86722656 -14.16953125 2.73445313 -13.2265625 2.59765625 C-12.03804687 2.42105469 -10.84953125 2.24445312 -9.625 2.0625 C-8.44164062 1.88847656 -7.25828125 1.71445312 -6.0390625 1.53515625 C-4.06516702 1.18756797 -1.91307727 0 0 0 Z " fill="#C22525" transform="translate(37,44)"/>
<path d="M0 0 C1.32 0 2.64 0 4 0 C4 0.66 4 1.32 4 2 C5.65 2 7.3 2 9 2 C9 1.34 9 0.68 9 0 C13.62 0.66 18.24 1.32 23 2 C23 3.32 23 4.64 23 6 C21.64068359 5.7834375 21.64068359 5.7834375 20.25390625 5.5625 C12.0395299 4.28696089 12.0395299 4.28696089 3.75 4 C2.5125 4 1.275 4 0 4 C-0.66 3.34 -1.32 2.68 -2 2 C-1.34 2 -0.68 2 0 2 C0 1.34 0 0.68 0 0 Z " fill="#AC2121" transform="translate(68,43)"/>
<path d="M0 0 C2.31 0 4.62 0 7 0 C7.33 1.32 7.66 2.64 8 4 C6.68 3.67 5.36 3.34 4 3 C4.34786708 4.97536745 4.34786708 4.97536745 5 7 C5.66 7.33 6.32 7.66 7 8 C7 8.66 7 9.32 7 10 C4.29120665 11.35439668 1.99066732 11.06501451 -1 11 C-1.33 9.68 -1.66 8.36 -2 7 C-1.34 7 -0.68 7 0 7 C0 4.69 0 2.38 0 0 Z " fill="#BFBABA" transform="translate(70,46)"/>
<path d="M0 0 C0.99 0 1.98 0 3 0 C3.37529138 6.37995338 3.37529138 6.37995338 1.5625 9.375 C-0.65003175 13.09205334 -0.73109016 16.7438063 -1 21 C-2.32 20.67 -3.64 20.34 -5 20 C-4.505 15.545 -4.505 15.545 -4 11 C-3.34 11 -2.68 11 -2 11 C-1.690625 10.05125 -1.38125 9.1025 -1.0625 8.125 C0 5 0 5 1 3 C0.34 2.67 -0.32 2.34 -1 2 C-0.67 1.34 -0.34 0.68 0 0 Z " fill="#B22222" transform="translate(60,43)"/>
<path d="M0 0 C0.99 0.495 0.99 0.495 2 1 C2 1.66 2 2.32 2 3 C3.98 3 5.96 3 8 3 C7.67 4.32 7.34 5.64 7 7 C5.68 7 4.36 7 3 7 C2.67 9.31 2.34 11.62 2 14 C2.66 14 3.32 14 4 14 C4 15.32 4 16.64 4 18 C2.68 17.67 1.36 17.34 0 17 C0 11.39 0 5.78 0 0 Z " fill="#B8AEAE" transform="translate(40,41)"/>
<path d="M0 0 C1.65 0 3.3 0 5 0 C4.34 1.98 3.68 3.96 3 6 C2.34 6 1.68 6 1 6 C1 6.66 1 7.32 1 8 C0.34 8 -0.32 8 -1 8 C-1.66 10.31 -2.32 12.62 -3 15 C-3.99 15 -4.98 15 -6 15 C-4.36041242 9.76727367 -2.61047965 4.84803364 0 0 Z " fill="#D12929" transform="translate(74,14)"/>
<path d="M0 0 C1.65 0 3.3 0 5 0 C3.68206814 5.66710699 1.51290803 7.66437233 -3 11 C-3.66 10.34 -4.32 9.68 -5 9 C-4.360625 8.071875 -3.72125 7.14375 -3.0625 6.1875 C-0.91377907 3.15780057 -0.91377907 3.15780057 0 0 Z " fill="#B11F1F" transform="translate(53,44)"/>
<path d="M0 0 C0 0.66 0 1.32 0 2 C0.66 2.33 1.32 2.66 2 3 C1.01 3.33 0.02 3.66 -1 4 C-1.33 5.155 -1.66 6.31 -2 7.5 C-2.33 8.655 -2.66 9.81 -3 11 C-3.99 11.33 -4.98 11.66 -6 12 C-6.48979592 4.65306122 -6.48979592 4.65306122 -4.125 1.5 C-2 0 -2 0 0 0 Z " fill="#A42020" transform="translate(14,51)"/>
<path d="M0 0 C1.32 0 2.64 0 4 0 C3.625 1.9375 3.625 1.9375 3 4 C2.01 4.495 2.01 4.495 1 5 C1.061875 6.27875 1.12375 7.5575 1.1875 8.875 C1.29296875 11.0546875 1.29296875 11.0546875 1 13 C0.01 13.66 -0.98 14.32 -2 15 C-1.814375 13.9275 -1.62875 12.855 -1.4375 11.75 C-0.79967105 8.23550569 -0.79967105 8.23550569 -1.5625 5.8125 C-2.16594832 3.31249982 -1.29741607 2.13692058 0 0 Z " fill="#AC8B8B" transform="translate(65,41)"/>
<path d="M0 0 C0.33 0 0.66 0 1 0 C1 3.3 1 6.6 1 10 C-0.65 10.66 -2.3 11.32 -4 12 C-3.67 11.01 -3.34 10.02 -3 9 C-2.34 9 -1.68 9 -1 9 C-0.67 6.03 -0.34 3.06 0 0 Z " fill="#CDCBCB" transform="translate(37,46)"/>
<path d="M0 0 C3.37462715 0.54723683 5.08235 1.0549 8 3 C8.1875 6.625 8.1875 6.625 8 10 C7.67 10 7.34 10 7 10 C6.34 8.02 5.68 6.04 5 4 C3.68 4 2.36 4 1 4 C0.67 2.68 0.34 1.36 0 0 Z " fill="#B8B0B0" transform="translate(44,38)"/>
<path d="M0 0 C1.65 0 3.3 0 5 0 C4.34 1.98 3.68 3.96 3 6 C1.68 5.67 0.36 5.34 -1 5 C-0.67 3.35 -0.34 1.7 0 0 Z " fill="#961D1D" transform="translate(74,14)"/>
<path d="M0 0 C0.33 0.99 0.66 1.98 1 3 C-1.31 3.66 -3.62 4.32 -6 5 C-6 3.68 -6 2.36 -6 1 C-4.02 0.67 -2.04 0.34 0 0 Z " fill="#B93333" transform="translate(47,44)"/>
<path d="M0 0 C1.32 0 2.64 0 4 0 C4 0.66 4 1.32 4 2 C5.65 2 7.3 2 9 2 C9 2.33 9 2.66 9 3 C7.54364629 3.22174933 6.08477044 3.42698698 4.625 3.625 C3.81289062 3.74101563 3.00078125 3.85703125 2.1640625 3.9765625 C1.44992188 3.98429687 0.73578125 3.99203125 0 4 C-0.66 3.34 -1.32 2.68 -2 2 C-1.34 2 -0.68 2 0 2 C0 1.34 0 0.68 0 0 Z " fill="#E12B2B" transform="translate(68,43)"/>
<path d="M0 0 C-0.33 1.32 -0.66 2.64 -1 4 C-2.32 4.33 -3.64 4.66 -5 5 C-5 3.68 -5 2.36 -5 1 C-3 0 -3 0 0 0 Z " fill="#D22727" transform="translate(50,54)"/>
<path d="M0 0 C1.5 1.125 1.5 1.125 3 3 C3.1875 6.1875 3.1875 6.1875 3 9 C1.35 7.35 -0.3 5.7 -2 4 C-1.34 2.68 -0.68 1.36 0 0 Z " fill="#8F1919" transform="translate(61,36)"/>
<path d="M0 0 C2.31 0.33 4.62 0.66 7 1 C6.67 1.66 6.34 2.32 6 3 C3.69 3 1.38 3 -1 3 C-0.67 2.01 -0.34 1.02 0 0 Z " fill="#D0D0D0" transform="translate(43,48)"/>
<path d="M0 0 C0.66 0.99 1.32 1.98 2 3 C-1 5 -1 5 -3 5 C-4.33783393 5.31478446 -5.67203709 5.64587656 -7 6 C-5.1875 4 -5.1875 4 -3 2 C-2.01 2 -1.02 2 0 2 C0 1.34 0 0.68 0 0 Z " fill="#A91A1A" transform="translate(44,57)"/>
<path d="M0 0 C0.6875 1.6875 0.6875 1.6875 1 4 C-0.4375 6.75 -0.4375 6.75 -2 9 C-2.6875 7.3125 -2.6875 7.3125 -3 5 C-1.5625 2.25 -1.5625 2.25 0 0 Z " fill="#BC2525" transform="translate(67,33)"/>
</svg>